<?xml version="1.0" encoding="UTF-8" standalone="no"?>
<!-- Created with Inkscape (http://www.inkscape.org/) -->

<svg
   version="1.1"
   id="svg1"
   width="243.52"
   height="279.67999"
   viewBox="0 0 243.52 279.67999"
   sodipodi:docname="leopard.svg"
   inkscape:version="1.4.3 (0d15f75, 2025-12-25)"
   xmlns:inkscape="http://www.inkscape.org/namespaces/inkscape"
   xmlns:sodipodi="http://sodipodi.sourceforge.net/DTD/sodipodi-0.dtd"
   xmlns="http://www.w3.org/2000/svg"
   xmlns:svg="http://www.w3.org/2000/svg">
  <defs
     id="defs1" />
  <sodipodi:namedview
     id="namedview1"
     pagecolor="#ffffff"
     bordercolor="#000000"
     borderopacity="0.25"
     inkscape:showpageshadow="2"
     inkscape:pageopacity="0.0"
     inkscape:pagecheckerboard="0"
     inkscape:deskcolor="#d1d1d1"
     inkscape:zoom="1.9543534"
     inkscape:cx="73.937498"
     inkscape:cy="145.06077"
     inkscape:window-width="1920"
     inkscape:window-height="991"
     inkscape:window-x="-9"
     inkscape:window-y="-9"
     inkscape:window-maximized="1"
     inkscape:current-layer="svg1" />
  <g
     id="g3">
    <ellipse
       style="fill:#a99344;fill-opacity:1;stroke-width:8.66372"
       id="path2"
       cx="167.76649"
       cy="96.259468"
       rx="12.344236"
       ry="9.0183287" />
    <ellipse
       style="fill:#a99344;fill-opacity:1;stroke-width:8.66372"
       id="path2-8"
       cx="76.033035"
       cy="95.889336"
       rx="12.344236"
       ry="9.0183287" />
  </g>
  <path
     style="fill:#1c2c45;fill-opacity:1"
     d="m 116.59286,276.11202 c -2.43807,-1.78639 -5.94486,-4.3618 -7.79286,-5.72314 -4.02214,-2.96293 -6.0278,-4.18901 -8.13203,-4.97121 -1.571056,-0.58401 -1.572312,-0.58393 -2.039027,0.11898 -0.634996,0.95635 -1.228183,0.89468 -5.668941,-0.58936 -5.631581,-1.88201 -12.225193,-5.29673 -19.280957,-9.9853 -6.554927,-4.35577 -7.235969,-4.722 -8.781002,-4.722 -2.241184,0 -9.974038,-3.99985 -15.101401,-7.81127 -6.196318,-4.60603 -12.439132,-11.42835 -15.642517,-17.09458 -0.621301,-1.09897 -1.049456,-1.56822 -1.203484,-1.319 -0.135319,0.21895 -0.415377,0.27789 -0.645271,0.13581 -0.307206,-0.18986 -0.346061,-0.0634 -0.159451,0.51901 0.448622,1.40011 0.571725,3.22039 0.240212,3.5519 -1.049531,1.04953 -8.641686,-8.77781 -11.942816,-15.45887 -2.506229,-5.07229 -4.965604,-13.4774 -5.867895,-20.054 -0.88986,-6.48599 -0.624655,-16.7076 0.670965,-25.86052 l 0.548024,-3.87152 -2.121586,-4.28847 C 6.5284267,144.24711 4.968237,129.27471 8.8187695,112.10643 9.604999,108.60088 13.774542,95.357348 16.609838,87.359998 c 0.717568,-2.024 1.305905,-3.83167 1.307415,-4.017044 0.0015,-0.185374 -1.087474,-1.697374 -2.419966,-3.36 C 12.835162,76.661271 10.896656,72.975643 10.111033,69.742221 9.4120219,66.865267 8.857502,61.062007 9.049293,58.630706 9.2814933,55.687144 8.8275938,54.250983 6.6551218,51.055425 3.8311682,46.901582 1.938954,42.295433 0.76849334,36.725817 0.00798043,33.106929 0.00789764,24.968882 0.76833133,20.799999 2.0715552,13.655409 5.2289128,7.3989236 8.8399103,4.8057015 12.225566,2.3743073 18.27743,0.31967285 22.051188,0.32041435 c 2.155534,4.2353e-4 7.490682,1.13747925 9.788813,2.08624485 5.407055,2.2322616 11.489087,5.7199192 24.48,14.0377188 4.312,2.76088 8.162022,5.10146 8.555605,5.201289 0.475719,0.120662 2.460229,-0.567964 5.92,-2.054246 14.212776,-6.105657 28.23597,-9.080107 45.389264,-9.6274838 13.08268,-0.4174802 21.19439,0.1040388 32.29513,2.0763248 9.1518,1.626014 18.63067,4.777259 26.96223,8.96358 l 2.16222,1.086443 3.11778,-1.887204 c 1.71477,-1.037962 6.06977,-3.72667 9.67777,-5.974906 10.01902,-6.243101 12.69664,-7.809715 16,-9.361227 7.38912,-3.4704917 11.88099,-4.70700423 16.26598,-4.47766355 5.01717,0.26240459 9.48916,2.33086385 13.34104,6.17071535 2.82735,2.8185273 4.57268,6.2012872 5.96006,11.5516962 0.84904,3.274319 1.00973,4.548643 1.14598,9.088303 0.31057,10.347634 -1.52787,16.786362 -7.16119,25.080419 L 234.24,54.800837 v 4.717664 c 0,6.463397 -1.02919,12.053622 -2.89105,15.703163 -0.70276,1.377531 -3.92566,5.469253 -5.3862,6.838203 -1.20675,1.13108 -1.21959,1.311054 -0.2211,3.099826 1.50686,2.699532 7.37426,19.791367 8.93928,26.040307 1.67963,6.70653 2.35025,15.24259 1.82644,23.24797 -0.67666,10.34132 -2.69892,17.66628 -6.7855,24.57824 l -1.96381,3.32154 0.52238,4.34612 c 2.07267,17.24413 1.30296,28.03016 -2.85813,40.05114 -2.69136,7.77507 -8.14668,16.5557 -12.59478,20.27199 -1.75683,1.46778 -2.26753,1.24904 -2.26753,-0.97124 0,-0.94917 -0.12958,-1.72577 -0.28797,-1.72577 -0.15838,0 -1.04196,1.188 -1.9635,2.64 -2.26161,3.56345 -4.15938,5.99445 -7.02468,8.99841 -6.98841,7.32662 -16.82404,13.34027 -24.36872,14.8994 -1.4419,0.29797 -2.8908,1.09386 -7.20472,3.95759 -8.10939,5.38329 -14.9423,8.86856 -21.13971,10.78274 -2.83568,0.87585 -3.73729,0.83409 -4.49659,-0.20826 l -0.61927,-0.85012 -2.81542,1.7006 c -2.74565,1.65844 -8.94892,6.0173 -15.31968,10.76467 -1.73814,1.29524 -3.41536,2.35497 -3.72715,2.35497 -0.31178,0 -2.56166,-1.46159 -4.99973,-3.24797 z m 12.32626,-13.28799 c 15.71382,-11.57986 24.62959,-19.70723 33.90191,-30.90404 4.12002,-4.97514 4.7179,-5.19885 4.14591,-1.55128 -0.41751,2.66243 -3.03166,10.37272 -4.43874,13.09184 -0.68554,1.32476 -2.25483,3.72699 -3.48731,5.33829 -3.27472,4.28121 -3.07079,4.65544 1.02011,1.87193 8.84227,-6.01643 12.48144,-10.32261 22.62435,-26.7711 2.15035,-3.48717 4.8977,-8.31947 6.10522,-10.73843 2.3221,-4.65175 3.04412,-5.64438 3.41072,-4.68904 0.11488,0.29936 0.1249,3.08758 0.0223,6.19604 -0.24655,7.46814 -1.22534,12.34387 -3.88946,19.37476 -0.45912,1.21165 -0.78303,2.25474 -0.7198,2.31797 0.24431,0.2443 6.73028,-5.78479 8.74696,-8.13082 5.49177,-6.38864 8.80641,-13.92545 11.50067,-26.15016 0.65942,-2.992 1.31415,-5.57069 1.45494,-5.73043 0.1495,-0.16962 0.48166,-0.10316 0.79844,0.15974 0.68089,0.5651 3.46452,6.22289 4.18291,8.50188 0.29626,0.93985 0.65074,1.70881 0.78775,1.70881 0.69298,0 1.56146,-1.63466 2.5123,-4.7287 2.03735,-6.62956 3.05781,-15.53954 2.68838,-23.47303 -0.12186,-2.61705 -0.28986,-4.75826 -0.37333,-4.75826 -0.0835,0 -1.09704,0.88425 -2.25237,1.96501 -1.15534,1.08076 -3.14347,2.82094 -4.41808,3.86707 l -2.31747,1.90206 2.2173,2.09169 c 1.59844,1.5079 2.21729,2.31584 2.21729,2.8948 0,0.73608 -0.0917,0.78823 -1.09817,0.62489 -0.604,-0.098 -2.13858,-0.90885 -3.41019,-1.80186 -2.46,-1.7276 -2.88513,-1.87446 -3.45132,-1.19224 -0.19693,0.23728 -2.79812,2.13333 -5.78043,4.21343 l -5.42237,3.78201 2.18157,2.0198 c 2.71659,2.51515 4.01335,4.91333 2.65677,4.91333 -0.54999,0 -1.91145,-0.91921 -5.66581,-3.82537 l -1.84138,-1.42538 -1.00434,0.58596 c -0.99537,0.58074 -2.74055,1.54564 -11.73814,6.48997 -8.90676,4.89443 -12.72556,7.78093 -21.0879,15.93961 -7.77943,7.58997 -14.12002,12.59491 -19.28255,15.22068 -4.86739,2.47565 -14.39585,3.75478 -23.4707,3.15078 -8.08307,-0.53798 -12.88385,-2.0628 -18.893033,-6.00075 -5.064159,-3.31866 -6.768273,-4.77171 -14.692006,-12.52742 -9.710757,-9.50484 -11.533808,-10.79632 -28.891377,-20.46724 l -3.611378,-2.01211 -1.188622,0.7876 c -7.5572,5.00753 -7.823681,5.11451 -8.007874,3.21479 -0.07969,-0.82195 0.150624,-1.29433 1.16889,-2.39738 0.697477,-0.75555 2.055784,-1.87133 3.01846,-2.4795 l 1.750319,-1.10576 -1.479209,-1.17492 C 44.428031,189.67027 35.891991,183.68 35.669007,183.68 c -0.08114,0 -0.831858,0.48161 -1.668266,1.07025 -3.880492,2.73099 -6.352603,3.65198 -6.729844,2.50724 -0.07658,-0.23238 1.080334,-1.61225 2.570917,-3.06638 l 2.710151,-2.64387 -3.988045,-3.49362 c -3.919165,-3.43328 -4.827364,-4.14054 -5.037523,-3.92296 -0.302245,0.31293 -0.840941,9.01464 -0.658111,10.63066 0.117065,1.03473 0.27431,2.69073 0.349434,3.68 0.244741,3.22288 0.812133,6.8559 1.580299,10.11867 0.820109,3.48341 2.60456,8.68966 3.078866,8.9828 0.364978,0.22557 1.035114,-1.33222 2.281184,-5.3028 1.137521,-3.62469 2.682738,-6.81223 3.217397,-6.63698 0.211494,0.0693 0.75057,1.91501 1.197947,4.10152 0.447377,2.1865 1.11976,4.98346 1.494184,6.21546 0.374425,1.232 1.05975,3.608 1.522946,5.28 1.510856,5.45374 5.152406,12.14445 9.18906,16.88329 1.733346,2.03486 7.292313,7.22074 8.372013,7.81012 0.536617,0.29293 0.572207,0.22365 0.382842,-0.74523 -0.114825,-0.5875 -0.701882,-2.14818 -1.304572,-3.46818 -0.602689,-1.32 -1.382204,-3.5204 -1.732254,-4.88978 -0.921252,-3.60391 -1.65687,-10.69882 -1.550074,-14.95022 0.117826,-4.69045 0.52894,-4.83408 2.289822,-0.8 1.360574,3.117 8.497797,15.73601 12.123012,21.43417 5.289423,8.31397 9.72182,13.09933 16.015807,17.29118 2.034092,1.35473 3.849126,2.41173 4.03341,2.3489 0.184283,-0.0628 -0.461618,-1.30497 -1.435337,-2.7603 -3.640381,-5.44096 -5.361478,-9.3755 -7.451211,-17.03395 -1.032932,-3.78548 -1.158504,-4.8 -0.594124,-4.8 0.749115,0 1.479382,0.75905 6.00339,6.24 6.072259,7.3567 10.02094,11.24382 19.644873,19.33861 3.07369,2.58532 19.58201,15.02078 19.98192,15.05207 0.0655,0.005 3.37752,-2.39186 7.36,-5.32664 z m -1.80887,-38.58971 c 1.32503,-0.65556 3.33484,-2.05865 4.66035,-3.25349 1.54224,-1.3902 2.59762,-2.10084 3.12,-2.10084 0.71707,0 0.7894,0.12635 0.7894,1.37884 0,0.75836 0.18381,1.63022 0.40847,1.93746 0.38307,0.52388 0.50182,0.50643 1.90984,-0.28052 1.96553,-1.09856 4.01701,-3.41458 5.4645,-6.16916 1.40029,-2.66476 1.78554,-3.02096 3.12402,-2.88845 1.00516,0.0995 1.31251,0.40103 1.73473,1.70183 0.19408,0.59794 0.2593,0.57691 0.99227,-0.32 0.43149,-0.528 1.2484,-1.89258 1.81535,-3.0324 0.85223,-1.71335 1.05001,-2.52222 1.14155,-4.66862 0.0952,-2.23165 -0.0116,-2.90673 -0.76078,-4.80759 -0.47933,-1.21626 -1.1576,-2.52617 -1.50727,-2.91091 -1.26206,-1.38863 -4.54602,-2.47377 -16.9717,-5.60811 -6.97217,-1.7587 -8.07251,-1.95406 -10.95098,-1.9442 -1.76926,0.006 -4.05844,0.22843 -5.12,0.49737 -3.10245,0.78598 -14.10588,3.71343 -17.919998,4.76759 -1.936,0.53508 -4.268877,1.32511 -5.184171,1.75562 -1.433163,0.6741 -1.788521,1.03598 -2.56,2.607 -0.791601,1.61201 -0.893254,2.16648 -0.873697,4.76563 0.02048,2.72127 0.109471,3.11638 1.189282,5.28 1.973045,3.9534 3.428586,5.16303 3.428586,2.84933 0,-0.49033 0.276021,-1.14131 0.61338,-1.44661 0.942685,-0.85312 1.732423,-0.21029 3.218138,2.61949 1.68711,3.21338 3.2969,5.38306 4.58016,6.17316 1.22185,0.75229 3.35412,1.44413 3.62279,1.17545 0.10469,-0.10468 0.28376,-0.94397 0.39794,-1.86508 0.11417,-0.92111 0.37447,-1.73016 0.57843,-1.79788 0.20396,-0.0677 1.54232,0.82267 2.97414,1.97864 5.15367,4.16079 7.20668,5.04626 11.28527,4.86741 2.0628,-0.0905 2.85453,-0.29844 4.8,-1.26096 z m -16.45738,-19.45276 c -0.74426,-0.43389 -1.03691,-2.2555 -0.58321,-3.63024 0.45663,-1.38359 1.85281,-2.60468 4.13729,-3.61843 2.23639,-0.99242 3.35669,-0.8897 3.4956,0.32051 0.19742,1.71989 -2.514,5.47128 -4.8098,6.65464 -1.35056,0.69613 -1.4865,0.71273 -2.23988,0.27352 z m 18.67887,-0.94087 c -2.74062,-1.9853 -4.64108,-6.2069 -3.21048,-7.13161 0.70397,-0.45504 4.85486,1.51632 6.27874,2.98193 0.8469,0.87172 1.04,1.32657 1.04,2.44973 0,2.63541 -1.79281,3.37725 -4.10826,1.69995 z m 37.79465,-5.78476 c 1.54351,-1.05656 5.64495,-3.43202 9.11431,-5.27879 3.46936,-1.84678 6.42507,-3.47491 6.56824,-3.61808 0.633,-0.633 -7.36182,-3.49912 -10.15198,-3.63945 -1.5562,-0.0783 -1.60231,-0.0532 -2.72,1.47842 -0.62533,0.85692 -2.48341,3.37692 -4.12907,5.6 -3.55464,4.80188 -4.10109,5.8031 -4.40094,8.06341 l -0.2274,1.71428 1.57022,-1.19938 c 0.86363,-0.65966 2.8331,-2.06384 4.37662,-3.12041 z m -85.736835,2.82406 c -0.269899,-1.44355 -1.838803,-4.56109 -3.34607,-6.64892 -0.695286,-0.96309 -2.231505,-3.22898 -3.41382,-5.03531 -1.428756,-2.18285 -2.400958,-3.35058 -2.898995,-3.48206 -1.910103,-0.50424 -10.450669,1.99836 -10.450669,3.06231 0,0.39466 3.341881,2.52223 11.24169,7.15691 1.737071,1.01911 4.38231,2.77699 5.87831,3.90641 1.496,1.12941 2.8244,2.05959 2.952,2.06707 0.1276,0.007 0.144499,-0.45441 0.03755,-1.02641 z M 101.0741,190.09616 c 3.64881,-0.75108 9.17582,-2.50908 11.83915,-3.76573 3.49637,-1.64971 5.36262,-4.22752 5.6951,-7.86652 0.17544,-1.92025 0.13904,-2.04686 -1.13431,-3.94542 -2.28427,-3.40581 -7.04045,-7.61748 -12.05685,-10.67653 -8.916987,-5.43765 -12.613667,-10.67373 -12.687319,-17.97066 -0.02337,-2.31564 0.09789,-3.02253 0.741092,-4.32 1.308061,-2.63862 1.840432,-2.29124 3.017108,1.9687 0.987897,3.5765 3.338413,6.5963 4.133279,5.31017 0.3241,-0.5244 5.50063,-2.22504 7.44096,-2.44456 2.38106,-0.26939 4.57467,0.17469 8.88348,1.7984 4.47627,1.68682 5.91962,1.68468 9.91223,-0.0147 4.10872,-1.74876 6.73801,-2.15343 9.85781,-1.51721 1.32388,0.26998 3.42055,0.93569 4.65925,1.47936 1.23871,0.54367 2.41709,0.9885 2.61863,0.9885 0.58233,0 2.25196,-4.02848 2.75131,-6.63831 0.5354,-2.7983 0.61477,-2.96169 1.43857,-2.96169 1.52061,0 2.77455,4.42621 2.40603,8.49294 -0.25723,2.83866 -1.09927,5.41346 -2.37833,7.27252 -1.56136,2.26936 -5.15133,5.38788 -8.70483,7.56169 -6.81441,4.16863 -11.19548,8.0332 -13.55033,11.95282 -1.06766,1.77713 -1.18465,2.17894 -1.04968,3.60535 0.0944,0.9981 0.60396,2.47076 1.34699,3.89324 l 1.1951,2.2879 3.39573,1.43752 c 10.12535,4.28637 18.32659,5.74147 23.07573,4.0942 3.562,-1.23551 8.22152,-4.33364 7.9124,-5.26099 -0.0638,-0.19137 -2.23764,-0.32923 -5.47617,-0.34727 l -5.37039,-0.0299 -0.77292,-0.89785 c -1.52701,-1.77382 -0.64466,-3.91989 1.81348,-4.41078 0.77748,-0.15527 4.1496,-0.37317 7.4936,-0.48422 4.34454,-0.14429 6.28362,-0.32912 6.79334,-0.64755 0.89807,-0.56103 1.75658,-2.18973 1.62608,-3.08488 -0.0919,-0.63038 -0.29651,-0.6832 -2.70549,-0.69834 -2.9844,-0.0188 -3.95393,-0.55013 -3.95393,-2.16702 0,-2.06312 0.91138,-2.57586 5.56439,-3.13054 1.38841,-0.16551 2.61241,-0.38862 2.72,-0.4958 0.10759,-0.10718 0.19561,-1.44321 0.19561,-2.96895 V 162.72 l -3.321,-0.33572 c -2.85891,-0.28901 -3.40435,-0.43865 -3.92,-1.07546 -0.91875,-1.13461 -0.76892,-2.49332 0.39484,-3.58044 0.95072,-0.8881 1.12428,-0.92838 4,-0.92838 1.65339,0 3.00616,-0.0622 3.00616,-0.13817 0,-0.076 -0.41894,-1.27441 -0.93098,-2.66314 -1.64719,-4.46741 -3.67372,-8.43618 -7.06632,-13.83869 -7.6689,-12.21229 -9.08438,-14.92223 -8.29259,-15.87627 0.7244,-0.87285 2.31638,-0.5322 3.53432,0.75627 1.87907,1.98789 5.47352,6.46161 7.6489,9.52 1.12668,1.584 2.65211,3.62627 3.38984,4.53838 2.63061,3.2524 5.87857,10.20113 7.30184,15.62162 l 0.67218,2.56 1.59141,0.22556 c 0.87527,0.12406 3.6794,0.45019 6.2314,0.72472 6.84631,0.7365 17.17429,2.77515 26.86239,5.30239 l 3.66239,0.95537 1.25835,-1.20402 c 4.24893,-4.06549 9.16182,-14.42907 10.78737,-22.75563 2.29271,-11.74389 1.27125,-22.2467 -3.73752,-38.42978 -1.97762,-6.389578 -2.80737,-8.73934 -4.35702,-12.338612 -0.60621,-1.408 -1.8595,-4.648 -2.78509,-7.2 -0.92559,-2.552 -3.11322,-7.592 -4.86139,-11.2 -2.81154,-5.802636 -4.0099,-8.025972 -8.06725,-14.967246 -0.91067,-1.55798 -6.88677,-7.994851 -8.92223,-9.610164 -0.484,-0.384096 -0.88,-0.826337 -0.88,-0.982759 0,-0.156421 1.20983,-0.661607 2.68852,-1.122636 5.88384,-1.834489 10.91149,-5.102628 15.86956,-10.315753 2.23294,-2.347803 2.34313,-2.527848 1.6,-2.614485 -0.43894,-0.05117 -2.16608,0.326832 -3.83808,0.840015 -5.97687,1.834464 -8.90604,2.474984 -9.3389,2.042129 -0.73094,-0.730944 5.56421,-6.447521 11.65898,-10.587431 0.90255,-0.613063 2.56329,-1.296327 4.088,-1.681895 2.18431,-0.552365 2.81771,-0.596018 4.23993,-0.29221 3.65433,0.780621 5.48658,3.057434 5.41788,6.732436 -0.0214,1.144 -0.24619,2.761764 -0.49957,3.595031 -0.65547,2.155579 -3.5433,6.342863 -6.65631,9.651484 -1.4685,1.560775 -2.71007,2.938992 -2.75903,3.062704 -0.049,0.123713 0.68638,0.160629 1.63411,0.08204 4.82456,-0.400091 4.10863,2.044646 -2.49698,8.526558 -3.0512,2.99407 -3.67115,3.758534 -3.50337,4.32 0.34676,1.160324 5.47369,11.42316 7.02545,14.063193 1.43904,2.448253 1.49146,2.496303 2.48536,2.278007 1.20669,-0.265033 1.50358,-0.605855 2.92736,-3.360476 0.8722,-1.687466 1.24944,-3.068479 1.91489,-7.010084 0.45579,-2.699742 0.76981,-4.967512 0.69783,-5.03949 -0.072,-0.07198 -1.00533,0.310559 -2.07412,0.850083 -2.01565,1.017496 -3.058,1.216758 -3.40742,0.651384 -0.33413,-0.540631 1.29813,-2.991203 4.42393,-6.641826 4.04471,-4.723803 5.16222,-6.31495 6.60486,-9.404133 2.50553,-5.365199 3.53382,-10.052708 3.53282,-16.104472 -9.4e-4,-5.659808 -1.00706,-9.8741 -3.26551,-13.678052 -2.35178,-3.961155 -4.06539,-4.8971684 -8.89019,-4.8560214 -2.54184,0.021677 -3.53815,0.1952995 -6.08,1.0595354 -4.69034,1.594732 -8.29434,3.794535 -15.10713,9.221079 -5.75596,4.584745 -9.82779,9.697203 -12.91648,16.217481 -0.78227,1.651391 -1.64867,3.190391 -1.92533,3.420001 -0.6127,0.508495 -0.64214,0.491683 -4.71764,-2.694122 -8.02615,-6.274016 -19.39571,-11.534201 -31.23735,-14.452118 -8.39913,-2.069643 -13.2647,-2.833202 -21.42171,-3.361729 -10.67965,-0.69198 -24.89759,0.07289 -33.048636,1.777885 -3.289692,0.688122 -9.680299,2.642837 -13.225723,4.045392 -7.203051,2.849498 -20.206975,10.399107 -25.034048,14.533865 -1.548647,1.326535 -2.17019,1.26371 -2.488879,-0.251574 C 55.714273,38.717729 54.600522,36.311911 53.362072,33.95536 49.98076,27.521318 46.413912,23.612024 38.400001,17.556809 31.837735,12.59844 28.737583,11.012041 23.731851,10.050875 18.689818,9.0827391 15.960768,9.6605939 13.429236,12.232372 c -3.143393,3.193367 -4.6269446,7.123732 -5.2546196,13.921037 -0.2680595,2.902906 0.3447241,9.790612 1.1180212,12.56659 1.3609884,4.885669 4.5495424,10.597546 7.5026404,13.44 0.82283,0.792 1.699729,1.82735 1.948665,2.300777 0.248937,0.473428 1.173387,1.813054 2.054335,2.976947 1.768503,2.336516 2.161525,3.89809 0.881722,3.5033 C 20.706466,60.640711 19.221147,59.88131 18.190602,59.156995 17.122404,58.406216 16.96,58.409756 16.96,59.183817 c 0,1.061543 1.862861,10.0097 2.421269,11.630444 0.607674,1.763733 2.322463,3.745737 3.240736,3.745737 0.344539,0 0.930755,-0.324 1.302701,-0.72 1.503944,-1.601201 8.395295,-14.677903 8.395295,-15.930514 0,-0.455766 -1.37674,-2.107776 -4.012617,-4.814917 -5.046086,-5.182512 -5.950514,-7.014568 -3.462869,-7.014568 1.081775,0 3.315485,-0.750945 3.315485,-1.114624 0,-0.103004 -0.956891,-1.082352 -2.126424,-2.176328 -6.925514,-6.478094 -9.608032,-13.418007 -6.968898,-18.02916 1.141012,-1.993601 3.031285,-2.7721 6.386428,-2.630218 2.262049,0.09566 2.924436,0.270465 4.980636,1.314419 1.304384,0.662249 3.450853,2.140647 4.769933,3.285329 1.319079,1.144682 2.830326,2.330842 3.358326,2.635911 1.23078,0.711124 5.297467,4.9333 5.157474,5.354671 -0.209172,0.629598 -2.762907,0.182198 -6.965871,-1.220381 -2.349382,-0.784017 -5.035914,-1.520227 -5.970072,-1.636024 -1.628593,-0.201876 -1.68434,-0.184139 -1.355051,0.431143 0.188879,0.352925 1.005698,1.186987 1.815151,1.853472 0.809454,0.666485 2.139227,1.908645 2.955051,2.760356 2.544525,2.656453 6.475675,4.95286 13.257943,7.744714 1.196044,0.49234 2.249592,1.016461 2.341216,1.164712 0.274319,0.443857 -1.222809,2.061421 -2.654387,2.86792 -3.110343,1.752254 -10.296037,12.424517 -14.512486,21.554087 -0.731563,1.584 -1.534235,3.265397 -1.783714,3.736437 -0.24948,0.47104 -1.149194,2.77504 -1.999365,5.12 -0.850172,2.344959 -2.283319,6.001994 -3.184773,8.126744 -1.865614,4.397301 -3.01276,7.59723 -4.695094,13.096821 -0.646065,2.112 -1.517052,4.92 -1.935527,6.24 -1.996527,6.29766 -3.674973,16.07753 -3.665431,21.35751 0.02286,12.64783 2.513013,21.4876 8.595493,30.51305 2.687931,3.98847 4.253711,5.72944 5.152921,5.72944 0.366359,0 2.641701,-0.49901 5.056315,-1.1089 9.503557,-2.40043 17.953169,-3.99843 26.310207,-4.97581 3.08,-0.36022 5.845629,-0.7302 6.145842,-0.82219 0.363953,-0.11151 0.819467,-1.09459 1.366977,-2.95017 2.498652,-8.46826 5.058328,-13.06606 13.130975,-23.58641 4.457549,-5.80913 6.43949,-7.34053 7.849101,-6.06485 1.132862,1.02522 0.782474,2.10326 -2.041386,6.28072 -6.48759,9.59736 -11.343238,18.21625 -12.6541,22.46131 -1.093631,3.5416 -1.192856,3.4063 2.498039,3.4063 2.949355,0 3.245549,0.059 4.16,0.82844 0.693381,0.58344 0.984552,1.11017 0.984552,1.78104 0,2.14626 -0.986964,2.68685 -5.607598,3.07144 l -2.872402,0.23908 -0.109556,1.12 c -0.165374,1.69062 0.537279,4.4295 1.231728,4.80116 0.327665,0.17536 1.261454,0.31884 2.075089,0.31884 0.813634,0 2.122836,0.16203 2.909337,0.36007 2.582972,0.6504 3.564791,3.06116 1.813402,4.45263 -0.784474,0.62326 -1.149208,0.68117 -3.36,0.53349 -2.462367,-0.1645 -2.48,-0.16011 -2.48,0.61681 0,1.20679 1.159191,3.21017 1.985534,3.43152 0.403956,0.10821 2.894466,0.20315 5.534466,0.21099 5.528352,0.0164 9.222347,0.41827 10.292919,1.11973 1.119826,0.73374 1.03799,2.69907 -0.168621,4.04951 l -0.915702,1.02485 -5.641934,-0.0798 c -5.075252,-0.0718 -5.622072,-0.0281 -5.444184,0.43552 0.262932,0.68519 3.565555,2.90657 5.772243,3.88247 4.94239,2.18576 7.78432,2.40653 14.139378,1.09839 z M 95.513496,176.0481 c -1.060893,-0.34149 -2.00209,-1.14127 -2.41845,-2.05508 -0.348175,-0.76417 -0.292313,-1.00257 0.504272,-2.15204 0.95463,-1.37753 1.679703,-1.71037 3.364766,-1.54456 2.07168,0.20385 3.103576,3.2117 1.789735,5.21687 -0.539914,0.82402 -1.731081,1.02061 -3.240323,0.53481 z m 49.535844,-0.85477 c -0.97218,-0.97218 -1.09837,-1.26836 -0.92025,-2.16 0.3029,-1.51636 1.46053,-2.51471 3.13469,-2.70341 1.87621,-0.21148 3.09589,0.75533 3.35084,2.6561 0.16421,1.22432 0.0958,1.36777 -1.10584,2.3195 -1.75659,1.39125 -2.98696,1.36029 -4.45944,-0.11219 z m -58.558416,-0.0814 c -0.907576,-0.14537 -2.330923,-1.82688 -2.330923,-2.7537 0,-1.0946 1.899792,-2.75822 3.14978,-2.75822 2.03188,0 3.410097,2.3038 2.468043,4.12553 -0.282842,0.54696 -0.54751,0.99447 -0.588153,0.99447 -0.04064,0 -0.504944,0.11373 -1.031782,0.25274 -0.526838,0.13901 -1.276972,0.20164 -1.666965,0.13918 z m 68.813236,-0.21885 c -1.31447,-0.57176 -2.14775,-1.82856 -1.85474,-2.79741 0.12236,-0.40461 0.59325,-1.13166 1.0464,-1.61566 1.62262,-1.73307 4.36076,-0.72801 4.75445,1.74515 0.163,1.02401 0.0561,1.31771 -0.78619,2.16 -1.07487,1.07486 -1.64563,1.16661 -3.15992,0.50792 z m -0.41068,-12.92353 c -1.02786,-0.97778 -1.29348,-1.45916 -1.29348,-2.34422 0,-1.60634 1.06206,-2.50532 2.9598,-2.50532 3.00528,0 4.11138,1.15361 3.39588,3.54174 -0.85981,2.86979 -2.87337,3.38999 -5.0622,1.3078 z m -70.03273,-0.0875 c -1.265972,-1.23773 -1.326637,-2.4294 -0.192303,-3.77748 0.73977,-0.87917 1.016426,-0.98455 2.584616,-0.98455 1.514363,0 1.884962,0.12879 2.691554,0.93538 1.39473,1.39473 1.100984,3.06287 -0.736639,4.18327 -1.587492,0.9679 -3.121164,0.84208 -4.347228,-0.35662 z m -48.060749,-2.92959 c -1.619227,-0.80373 -2.316664,-1.38657 -3.148333,-2.63103 -0.941865,-1.40934 -1.039995,-1.75027 -0.82895,-2.88 0.131661,-0.70478 0.25241,-2.04254 0.268333,-2.9728 0.01934,-1.13008 0.188242,-1.79217 0.50895,-1.9951 1.287361,-0.81457 5.997492,0.25674 8.095981,1.84142 1.669971,1.26108 2.784019,3.60533 2.784019,5.8583 0,2.0178 -0.34047,2.50686 -2.321434,3.33456 -1.74489,0.72906 -3.041708,0.59466 -5.358566,-0.55535 z m 163.808019,0.0363 c -1.86074,-1.33638 -1.93636,-1.46897 -1.79608,-3.14875 0.34813,-4.16851 3.48902,-6.98548 8.43714,-7.56703 2.27946,-0.26791 3.20229,0.0287 3.8229,1.22886 1.15808,2.23949 -0.37051,6.44342 -3.05197,8.39355 -3.39043,2.46573 -5.14152,2.72404 -7.41199,1.09337 z M 49.600001,148.22667 c -0.792,-0.50555 -1.995581,-1.53703 -2.674623,-2.29218 -1.13596,-1.26326 -1.217767,-1.4784 -1.023687,-2.69211 0.116015,-0.72552 0.466439,-1.75186 0.778719,-2.28075 0.511188,-0.86578 0.722598,-0.95927 2.120968,-0.93794 1.43829,0.022 1.656813,0.13816 2.954074,1.57103 2.514063,2.77687 3.064266,4.5658 1.925671,6.26113 -0.994668,1.48103 -2.173992,1.58818 -4.081122,0.37082 z m 140.724069,0.39242 c -1.58181,-0.85828 -1.5839,-3.31612 -0.005,-5.86994 1.36238,-2.20358 2.72624,-2.99787 4.85409,-2.82692 2.13656,0.17165 3.05515,1.05114 2.72641,2.61035 -0.34279,1.62583 -1.7666,3.97082 -3.22996,5.3197 -1.52033,1.40139 -2.76971,1.62186 -4.34554,0.76681 z M 30.053031,139.26486 c -1.158833,-0.30897 -2.469308,-0.79918 -2.912167,-1.08935 -1.853542,-1.21449 -2.731582,-5.28188 -1.613245,-7.47313 0.354354,-0.69431 0.916863,-1.50888 1.250022,-1.81016 0.90723,-0.82042 3.375306,-1.8306 5.024915,-2.05671 1.888219,-0.25881 2.804243,0.32663 3.902626,2.49418 1.182843,2.33423 1.326631,4.46188 0.457253,6.76603 -1.326306,3.51516 -2.509543,4.12894 -6.109404,3.16914 z M 209.92,139.614 c -1.69599,-0.61997 -3.51797,-3.8275 -3.50704,-6.174 0.009,-1.82803 1.18399,-4.72058 2.23455,-5.49865 1.02627,-0.76009 2.74697,-1.04083 4.63968,-0.757 2.61911,0.39276 4.95281,3.10521 4.95281,5.75662 0,1.4678 -1.43325,4.46183 -2.60982,5.45184 -1.4082,1.18493 -4.18492,1.77876 -5.71018,1.22119 z M 64.005553,138.61478 c -1.5819,-1.5819 -2.180203,-5.67422 -1.03614,-7.08708 1.146813,-1.41625 4.287979,-0.0446 5.911519,2.58145 0.495465,0.8014 0.985071,1.9761 1.088012,2.61046 0.155037,0.95538 0.0458,1.29473 -0.636343,1.97688 -0.689385,0.68938 -1.116535,0.82351 -2.62267,0.82351 -1.548204,0 -1.925425,-0.12627 -2.704378,-0.90522 z m 111.560067,0.57619 c -3.30622,-0.99078 -2.568,-4.51931 1.52119,-7.27097 1.97153,-1.32667 2.50524,-1.31139 3.17393,0.0909 0.94271,1.97689 0.5392,4.77952 -0.94148,6.53921 -0.8639,1.02668 -1.88471,1.20098 -3.75364,0.64091 z M 54.880714,135.83425 c -1.873862,-1.01297 -3.041932,-2.57258 -3.039517,-4.05836 0.0019,-1.16985 1.194468,-2.81331 2.410007,-3.3212 0.972766,-0.40644 1.230408,-0.40736 1.992993,-0.007 1.007307,0.5287 3.031767,2.58355 3.55797,3.61139 0.531912,1.03899 0.433857,2.49625 -0.222508,3.30683 -0.772241,0.95367 -3.329716,1.20864 -4.698945,0.46846 z m 129.014346,-0.16812 c -0.47673,-0.37499 -0.92019,-1.1279 -1.03977,-1.76533 -0.58134,-3.09882 3.6906,-6.71202 6.08264,-5.14469 1.88911,1.23779 1.56085,5.60186 -0.5316,7.06748 -1.03956,0.72813 -3.49435,0.64245 -4.51127,-0.15746 z M 94.050798,132.2007 c -0.651824,-0.52782 -0.736038,-0.86328 -0.706004,-2.81235 0.04334,-2.81231 0.464785,-4.36746 2.154021,-7.94835 0.74723,-1.584 1.599629,-3.6 1.89422,-4.48 0.679156,-2.02877 3.494775,-7.28261 3.991625,-7.44822 0.55924,-0.18642 0.46944,1.07313 -0.43077,6.04194 -1.397182,7.71192 -4.651071,17.24628 -5.885814,17.24628 -0.152445,0 -0.61022,-0.26969 -1.017278,-0.5993 z m 52.997652,-0.46291 c -0.91304,-1.39347 -2.02712,-4.5344 -3.36884,-9.49779 -2.17093,-8.03087 -2.52832,-10.57035 -1.48537,-10.55441 0.56847,0.009 2.64165,3.76454 3.35298,6.07441 0.35231,1.144 1.13943,3.16 1.74917,4.48 1.74819,3.78456 2.82861,7.22251 2.58798,8.23503 -0.46262,1.94656 -1.95305,2.61021 -2.83592,1.26276 z m 50.92643,-1.06958 c -0.37652,-0.37653 0.14935,-7.55184 0.7467,-10.18821 2.35978,-10.41493 2.56322,-13.35987 1.22331,-17.70799 -1.21079,-3.929148 -2.43943,-5.701321 -5.67645,-8.187645 -2.60323,-1.999508 -4.26866,-2.746057 -6.61477,-2.96514 l -2.07977,-0.194212 -1.52042,1.57741 c -0.83623,0.867576 -2.05162,2.623014 -2.70085,3.900974 -2.36513,4.655533 -3.69413,6.100283 -7.24187,7.872613 -4.5983,2.29716 -9.09529,3.15471 -15.02884,2.86594 l -4.04192,-0.19672 -0.93955,0.99706 c -0.76216,0.8088 -0.96454,1.34454 -1.07186,2.83738 -0.0728,1.01218 0.045,2.70433 0.26157,3.76033 0.75476,3.67931 0.76752,4.32 0.086,4.32 -0.3361,0 -1.11788,-0.468 -1.7373,-1.04 -1.62372,-1.49942 -2.04486,-3.75603 -2.01554,-10.8 0.0214,-5.1538 0.0932,-5.82894 0.8998,-8.473178 1.1675,-3.827074 3.08334,-7.153688 5.74917,-9.982676 3.94269,-4.183998 7.65121,-5.40148 15.67494,-5.145972 3.87198,0.1233 5.7259,0.353442 9.17278,1.13869 5.96991,1.360032 7.26287,1.476203 8.64,0.776298 1.06227,-0.539877 1.11941,-0.653358 1.10848,-2.201412 -0.01,-1.412414 -0.19255,-1.871978 -1.35601,-3.412956 -0.73946,-0.97942 -2.31828,-2.462095 -3.50848,-3.294834 -2.78708,-1.950028 -3.92428,-3.00056 -3.92279,-3.623831 0.002,-0.897401 1.24023,-2.558255 2.06052,-2.764135 1.81842,-0.456395 6.57764,2.999838 9.12442,6.626312 2.48844,3.543408 3.68592,7.819314 2.77169,9.896971 -0.15981,0.36319 0.2594,0.829243 1.538,1.709849 2.83992,1.955931 6.26417,6.121672 6.26417,7.620624 0,0.32145 0.56616,1.710482 1.25813,3.086738 2.0912,4.159202 2.40181,5.771572 2.4125,12.523512 0.0105,6.63088 -0.24853,8.18714 -1.94409,11.68 -1.4517,2.99049 -5.25142,7.2 -6.4991,7.2 -0.48442,0 -0.97607,-0.0953 -1.09256,-0.21179 z m -29.31984,-28.27462 c 4.31796,-2.16918 5.92708,-3.324348 6.86853,-4.930815 1.42012,-2.423241 1.02494,-5.307001 -1.00549,-7.33743 -0.74294,-0.742936 -2.26653,-1.363558 -2.5794,-1.050693 -0.0802,0.08019 -0.25994,0.9152 -0.39945,1.855574 -0.47915,3.229808 -2.59044,6.626001 -4.65555,7.488857 -1.07869,0.450705 -3.34435,0.180898 -4.1591,-0.49529 -0.26792,-0.222353 -1.00529,-1.257259 -1.63859,-2.299791 -0.63331,-1.042531 -1.31673,-1.841321 -1.51873,-1.775088 -0.69103,0.226585 -1.77492,2.196933 -1.98718,3.612392 -0.45903,3.061004 0.65123,4.991014 3.46816,6.028894 2.19398,0.80836 4.4671,0.48066 7.6068,-1.09661 z M 41.563615,129.70304 C 39.73784,128.27995 38.555328,126.45959 37.23528,123.04 l -1.235279,-3.2 0.0011,-7.36 c 0.001,-6.71267 0.06562,-7.58516 0.734555,-9.92 1.31273,-4.581922 3.270496,-8.128629 6.06381,-10.98526 1.468812,-1.502105 3.167395,-2.881986 4.164596,-3.3832 l 1.684069,-0.846448 -0.666146,-0.901011 c -0.966038,-1.306637 -1.253823,-2.934767 -0.76835,-4.346913 0.632479,-1.83976 4.712854,-7.453396 6.706357,-9.226371 0.926065,-0.82362 3.765966,-2.464278 4.271639,-2.467796 0.884893,-0.0062 2.53189,1.014629 2.884023,1.787475 0.66472,1.458902 0.44908,1.940511 -1.315662,2.938394 -1.990837,1.125729 -6.15255,4.899098 -6.813961,6.178125 -0.566699,1.095876 -0.593023,2.296396 -0.08138,3.711325 0.287693,0.795601 0.526649,1.018695 0.947913,0.884992 0.309788,-0.09832 0.852566,-0.02393 1.206172,0.165311 0.496098,0.265504 1.576761,0.118813 4.732088,-0.642341 6.183273,-1.49158 8.890307,-1.905366 12.468246,-1.905847 4.230022,-5.68e-4 7.307828,0.665702 10.608805,2.296547 2.121378,1.048065 2.986762,1.701236 4.22455,3.188589 2.17267,2.610727 3.933275,5.723684 5.041761,8.914426 1.422652,4.095053 1.75589,6.570873 1.61517,12.000003 -0.119319,4.60346 -0.163412,4.87206 -1.076889,6.56 -0.763067,1.41 -1.111564,1.76 -1.752476,1.76 -0.666939,0 -0.783198,-0.13306 -0.69898,-0.8 0.05556,-0.44 0.12058,-2.096 0.144486,-3.68 0.0491,-3.25329 -0.464507,-4.88456 -1.81689,-5.77068 -0.780746,-0.51156 -0.958676,-0.50434 -3.32852,0.13511 -2.946809,0.79514 -6.485791,0.87402 -9.015085,0.20095 -0.965244,-0.25686 -3.468543,-1.29898 -5.562887,-2.31582 -4.143954,-2.01196 -5.223043,-2.9642 -7.22243,-6.373403 -1.283621,-2.188737 -2.744854,-4.092799 -4.939295,-6.436159 -1.816767,-1.940057 -2.31084,-2.033556 -5.39368,-1.020701 -3.647426,1.198347 -6.258754,3.644485 -8.348842,7.8207 -1.763241,3.523143 -2.273827,5.832113 -2.26438,10.240003 0.0077,3.58386 0.110799,4.21354 1.545913,9.44 1.600339,5.82818 1.857478,8.20079 1.068174,9.85596 -0.593486,1.24454 -2.014219,1.31267 -3.483971,0.16708 z m 41.786924,-26.75318 c 1.71841,-0.97328 2.729463,-2.53995 2.729463,-4.229434 0,-1.561408 -0.522018,-3.313211 -1.192083,-4.000428 -0.414366,-0.424973 -0.565458,-0.35529 -1.317969,0.607843 -2.534797,3.244267 -2.655203,3.327249 -4.87679,3.360981 -3.229955,0.04904 -4.246849,-0.901607 -5.93092,-5.544568 -0.419231,-1.155816 -0.762239,-2.642108 -0.762239,-3.30287 0,-1.413659 -0.487801,-1.545419 -2.079502,-0.561694 -1.144881,0.707575 -2.411041,2.457798 -2.985738,4.127211 -0.719781,2.090857 0.895044,5.290603 3.499893,6.934969 4.882748,3.08235 10.187253,4.15344 12.915885,2.60799 z m -33.831307,22.68365 c -0.847368,-0.84736 -1.668438,-5.155 -1.248295,-6.54901 0.482329,-1.60034 2.16156,-3.5645 3.047418,-3.5645 0.898679,0 2.890639,2.01651 3.546021,3.58972 0.272594,0.65435 0.495625,1.98407 0.495625,2.95495 0,1.486 -0.143351,1.92567 -0.906244,2.77949 -0.76024,0.85086 -1.189161,1.03773 -2.662302,1.15989 -1.332788,0.11053 -1.880471,0.0212 -2.272223,-0.37054 z m 140.033758,-0.47633 c -1.27019,-0.79169 -1.82654,-2.41073 -1.65297,-4.81034 0.12726,-1.7593 1.18961,-4.39607 1.97498,-4.90194 0.20075,-0.12931 0.73952,-0.23731 1.19725,-0.24 3.57045,-0.021 5.06554,3.22463 3.46095,7.51328 -0.99582,2.66156 -3.02708,3.65635 -4.98021,2.439 z m 26.76005,-3.72731 c -2.11765,-3.0779 -2.62039,-4.69171 -2.95398,-9.48236 -0.27647,-3.97031 -0.25156,-4.52077 0.23837,-5.2685 0.49274,-0.75201 0.69455,-0.81835 2.03105,-0.66771 1.79158,0.20194 2.78901,1.22093 4.36844,4.46288 1.84841,3.79406 2.2466,10.18648 0.74708,11.99329 -0.19295,0.2325 -1.01681,0.41253 -1.88781,0.41253 -1.47312,0 -1.59213,-0.0679 -2.54315,-1.45013 z m -193.889973,0.51319 c -2.033039,-2.03304 -0.139558,-11.14691 3.025354,-14.56191 0.7049,-0.7606 1.007064,-0.86992 1.971717,-0.71338 2.247842,0.36477 2.407089,0.76441 2.183909,5.48058 -0.184766,3.90442 -0.268464,4.31876 -1.306587,6.46813 -0.610046,1.26306 -1.549587,2.66706 -2.087869,3.12 -1.197373,1.00752 -2.893071,1.10004 -3.786524,0.20658 z m 43.816934,-8.49156 c -5.32355,-0.77632 -8.554447,-2.27208 -11.36,-5.25915 -1.542191,-1.64197 -2.070355,-1.94833 -4.153953,-2.40949 -2.003719,-0.44349 -2.147929,-1.01189 -0.939763,-3.70404 0.861552,-1.91979 2.609941,-3.838823 3.497474,-3.838823 0.557078,0 1.278741,1.091527 1.582872,2.394123 0.336329,1.44049 2.897919,5.10168 4.591951,6.5631 1.88054,1.62232 4.419627,2.84171 8.608577,4.13423 1.796937,0.55446 3.36119,1.16025 3.476118,1.34621 0.59492,0.9626 -1.706267,1.29838 -5.303276,0.77384 z m 105.302419,0.14027 c -0.66741,-0.28646 -0.71275,-0.39452 -0.32,-0.76264 0.25167,-0.23589 1.89758,-0.89345 3.65758,-1.46125 1.76,-0.5678 3.90091,-1.40995 4.75757,-1.87143 2.08914,-1.12542 4.73289,-3.75297 7.3534,-7.30834 1.18853,-1.61254 2.37103,-3.012501 2.62777,-3.111025 0.56181,-0.215585 2.01207,0.299204 2.7666,0.982035 0.60042,0.54338 1.06865,2.88858 0.76667,3.84004 -0.10515,0.3313 -0.65937,0.87889 -1.2316,1.21688 -0.57222,0.33798 -2.20969,1.71586 -3.63881,3.06195 -2.97504,2.80219 -5.21843,4.18847 -7.9616,4.91978 -2.41542,0.64394 -7.73122,0.94311 -8.77758,0.494 z m -62.20908,-4.04511 c -0.87915,-0.87915 0.47087,-5.1707 2.24858,-7.14794 1.2329,-1.37128 1.4796,-1.50456 2.72681,-1.4732 l 1.37127,0.0345 -0.009,1.6 c -0.01,1.66952 -0.78659,3.12689 -2.93257,5.50237 -1.14647,1.26908 -2.86894,2.02001 -3.40465,1.48429 z m 27.53482,-5.05082 c -2.45938,-2.3565 -3.39562,-5.523062 -1.91904,-6.490559 0.93493,-0.612585 2.14889,-0.166333 3.52596,1.296137 1.13134,1.201502 1.68492,2.687322 1.68492,4.522332 0,2.49845 -1.14233,2.73168 -3.29184,0.67209 z M 31.698781,100.02263 c -0.606147,-0.730366 0.134629,-3.90132 1.388274,-5.942632 0.709336,-1.155012 1.549612,-2.024758 2.444486,-2.530219 1.313963,-0.742179 1.379347,-0.748689 1.796032,-0.178838 0.715968,0.979143 0.498427,2.225764 -0.846665,4.851837 -1.787902,3.490588 -3.746912,5.047202 -4.782127,3.799852 z M 208.37102,99.310571 c -1.12987,-0.8903 -3.25102,-5.034282 -3.25102,-6.351341 0,-1.051387 0.76574,-1.546903 2.02532,-1.310604 1.33525,0.250495 2.11019,1.080989 3.37994,3.622246 1.93955,3.881804 0.66902,6.264348 -2.15424,4.039699 z M 99.447867,90.159998 c -0.433453,-0.572 -0.934802,-1.328 -1.114109,-1.68 -1.027661,-2.017419 -0.655182,-6.289296 0.92076,-10.56 2.430552,-6.58663 2.232982,-12.906492 -0.552035,-17.65876 -1.078023,-1.839508 -2.959428,-3.621239 -3.823818,-3.621239 -1.118175,0 -2.768805,0.662111 -4.226038,1.695175 -2.36074,1.67358 -3.707516,4.359525 -4.444966,8.864824 -0.573585,3.504199 -0.564615,6.052502 0.03229,9.17185 0.26397,1.379483 0.47997,3.032744 0.48,3.673913 5.3e-5,1.143511 -0.524969,1.720822 -1.168277,1.28463 -0.467383,-0.316906 -3.078559,-4.13362 -4.194063,-6.130393 -2.804085,-5.019365 -2.013405,-12.64221 1.94712,-18.771926 2.307393,-3.57116 6.704918,-6.195728 10.788495,-6.43888 l 2.413221,-0.143692 1.304339,1.237249 c 1.797112,1.704676 2.700528,3.198304 4.522568,7.477249 1.65222,3.880113 3.01903,8.740985 3.62391,12.887914 0.52495,3.598907 0.33344,4.432394 -3.43552,14.952086 -0.40987,1.144 -0.74893,2.453681 -0.75348,2.910404 -0.007,0.723559 -0.84364,1.889596 -1.35547,1.889596 -0.0973,0 -0.531471,-0.468 -0.964923,-1.04 z m 41.765903,0.64 c -0.16752,-0.22 -0.4611,-1.282181 -0.65239,-2.360401 -0.1913,-1.07822 -1.02735,-3.67022 -1.8579,-5.76 -1.8724,-4.711219 -2.37483,-6.538865 -2.37968,-8.656444 -0.0171,-7.440831 4.32202,-19.132807 8.44342,-22.751442 1.29728,-1.139032 2.77941,-1.513503 4.96555,-1.254587 2.8552,0.338155 7.06661,2.856456 8.66708,5.182649 1.55458,2.259503 3.45475,6.488439 4.1569,9.251413 1.14949,4.523237 0.64202,9.9402 -1.05778,11.291231 -0.39968,0.31767 -1.20449,1.274836 -1.78847,2.127037 -1.65056,2.40867 -2.92038,3.730544 -3.58365,3.730544 -0.74677,0 -0.75318,-0.3827 -0.0552,-3.29683 0.67727,-2.827713 0.74722,-10.047023 0.12435,-12.834359 -1.08913,-4.873806 -3.64372,-7.792449 -7.56082,-8.6383 -2.51127,-0.542277 -5.86486,4.34983 -6.55159,9.557232 -0.59219,4.490573 0.55116,11.366381 2.83752,17.064103 0.79289,1.975913 0.85753,3.043808 0.22268,3.678658 -0.25092,0.250921 -0.6703,0.968585 -0.93195,1.59481 -0.84645,2.025849 -2.27989,3.0178 -2.99806,2.074686 z M 117.44,86.175449 c -1.38442,-0.501919 -3.52,-3.24442 -3.52,-4.520378 0,-0.33919 -0.216,-0.795973 -0.48,-1.015073 -0.58403,-0.4847 -0.61506,-1.817329 -0.0821,-3.52504 0.32683,-1.04721 0.54119,-1.273058 1.2,-1.264314 0.9897,0.01314 1.81705,0.70187 2.96694,2.469837 2.03147,3.123408 2.73127,6.272509 1.65755,7.45896 -0.57235,0.632432 -0.89071,0.704788 -1.74241,0.396008 z M 38.078562,82.718264 c -0.846006,-1.019375 0.700735,-5.351942 3.182111,-8.913395 1.561882,-2.241728 5.388964,-5.644871 6.348069,-5.644871 0.396649,0 0.447656,0.327173 0.286858,1.84 -0.32685,3.075084 -1.117532,5.095905 -3.192824,8.160206 -2.822394,4.167444 -5.448641,5.97454 -6.624214,4.55806 z M 122.2895,81.999998 c -0.58303,-1.114252 -1.02025,-3.94199 -0.70157,-4.53745 0.17026,-0.318121 0.23029,-0.657668 0.13341,-0.754549 -0.0969,-0.09688 0.10192,-0.324966 0.44178,-0.506856 0.83148,-0.444994 1.99688,0.37096 1.99688,1.398115 0,0.419633 0.12459,0.839971 0.27687,0.934084 0.56807,0.351084 0.66683,2.474058 0.15167,3.260289 -0.59257,0.904381 -1.87364,1.019372 -2.29904,0.206367 z m 79.24224,-0.896882 c -0.89402,-0.48524 -3.14601,-4.019635 -3.91439,-6.143462 -0.23872,-0.659811 -0.73311,-1.847656 -1.09866,-2.639656 -0.6255,-1.355228 -0.91735,-4.134669 -0.48006,-4.571957 0.27785,-0.277852 2.11291,1.022077 3.06607,2.171957 1.85226,2.234531 5.6996,8.337497 5.88754,9.339269 0.37524,2.000228 -1.41495,2.954092 -3.4605,1.843849 z m -75.31058,-4.757322 c -0.34164,-0.249813 -0.62626,-0.573813 -0.6325,-0.72 -0.006,-0.146188 -0.18163,-0.57172 -0.38976,-0.945627 -0.67608,-1.214576 0.58518,-6.200169 1.56853,-6.200169 0.1262,0 0.32364,-0.296778 0.43876,-0.659506 0.28346,-0.893083 1.63403,-1.507105 2.16249,-0.983149 1.30119,1.290097 1.13321,5.542017 -0.31774,8.042655 -1.18447,2.041371 -1.68679,2.301568 -2.82978,1.465796 z M 67.236953,74.399641 c -2.916126,-0.9094 -4.914998,-4.213024 -4.186359,-6.918981 0.542221,-2.013654 4.583342,-6.851548 6.958955,-8.331027 1.760973,-1.096694 4.097875,-0.753209 4.88527,0.718053 0.537462,1.004257 -0.122923,3.479692 -1.978161,7.415081 -1.719611,3.647695 -1.817708,4.612447 -0.433675,4.265077 1.718217,-0.431245 0.56496,2.100658 -1.314525,2.885957 -1.299488,0.54296 -2.103279,0.535976 -3.931505,-0.03416 z M 171.2,74.141937 c -1.24715,-0.4253 -1.63819,-1.446303 -0.81544,-2.129123 0.76963,-0.638736 0.61054,-1.348946 -1.01426,-4.527828 -1.27742,-2.499228 -1.51129,-3.239278 -1.52,-4.809727 -0.0132,-2.388328 0.67897,-3.177072 2.98253,-3.398415 1.93149,-0.185591 3.14721,0.45365 5.23324,2.751705 0.75567,0.832463 1.84411,1.843945 2.41876,2.247738 1.84959,1.299649 2.52709,3.666105 1.56996,5.483711 -1.40596,2.669909 -2.2303,3.700761 -3.4789,4.350405 -1.04093,0.541597 -3.83216,0.55797 -5.37589,0.03153 z m 19.68,-7.939229 C 189.85919,65.62183 187.2257,62.997592 186.23078,61.569821 184.3934,58.933047 181.12,52.054245 181.12,50.829903 c 0,-0.514011 1.06397,-0.266601 2.0498,0.476647 0.54461,0.410603 2.00096,1.33354 3.23633,2.050971 2.97397,1.727107 5.17079,4.11239 6.81491,7.399532 1.4623,2.923636 1.64905,4.143131 0.75797,4.949549 -0.77475,0.701137 -2.30749,0.946506 -3.09901,0.496106 z M 50.418146,65.528796 c -0.853799,-1.218969 -0.626427,-3.113414 0.622626,-5.187672 2.12963,-3.536601 4.185221,-5.739484 6.811521,-7.299598 3.614359,-2.147055 4.211073,-2.386214 4.557039,-1.82643 0.178063,0.288112 0.128225,0.697882 -0.134007,1.101806 -0.635244,0.97849 -0.95976,1.611517 -2.924797,5.705362 -1.466046,3.054275 -2.225744,4.209122 -3.947006,5.999999 -1.879876,1.955905 -2.270587,2.217735 -3.309379,2.217735 -0.854401,0 -1.314648,-0.195304 -1.675997,-0.711202 z m 79.988734,-3.891332 c -0.50404,-0.660839 -1.01367,-1.984095 -1.30825,-3.396933 -0.43083,-2.066286 -0.43044,-2.493714 0.004,-3.987039 0.6362,-2.188442 1.526,-3.272395 3.06471,-3.733401 1.49279,-0.447254 1.94594,-0.177245 2.92573,1.743308 0.53999,1.058457 0.62803,1.745955 0.53661,4.190095 -0.11947,3.194112 -0.48238,3.971044 -2.57661,5.516122 -1.34407,0.991626 -1.6671,0.951074 -2.64587,-0.332152 z m -23.11671,-5.165006 c -1.3377,-0.562463 -1.56766,-0.989145 -1.80676,-3.352459 -0.12859,-1.271048 1.09137,-4.513295 2.12606,-5.65034 1.24862,-1.372146 3.34859,-2.416031 4.07656,-2.026437 0.63915,0.342066 1.26779,1.727058 1.38824,3.058528 0.0802,0.886149 -0.99321,4.64925 -1.73188,6.071741 -0.18664,0.359421 -0.95574,1.025807 -1.70911,1.480859 -1.23563,0.746346 -1.46508,0.78729 -2.34311,0.418108 z m 65.53456,-6.7203 c -1.51404,-1.416202 -2.13975,-2.791593 -1.74179,-3.828659 0.35212,-0.917601 1.75851,-0.525837 3.52256,0.981243 1.41499,1.20886 1.7145,1.644899 1.7145,2.496 0,2.219505 -1.35274,2.35551 -3.49527,0.351416 z m -48.92079,-1.768072 c -0.42872,-0.172024 -1.01272,-0.920791 -1.39865,-1.793235 -0.86287,-1.950677 -0.71259,-5.757224 0.28,-7.091983 1.27235,-1.710969 4.8322,-1.055238 5.79977,1.068329 0.83603,1.834903 -0.0403,5.455178 -1.75333,7.243184 -0.89846,0.937798 -1.65227,1.085508 -2.92779,0.573705 z M 84.088047,47.487684 c -1.786385,-0.941782 -1.966826,-2.427875 -0.560828,-4.618933 1.080194,-1.683336 3.31623,-3.063686 6.728957,-4.153919 2.828025,-0.903444 3.832478,-0.83483 4.956684,0.338588 0.705655,0.736545 0.932596,1.278369 0.932596,2.226579 0,2.153028 -2.026246,3.743358 -7.025454,5.514033 -3.119995,1.105075 -4.017015,1.228728 -5.031955,0.693652 z M 147.52,46.094612 c -3.12912,-0.647584 -5.52415,-2.325278 -6.59131,-4.617163 -1.39218,-2.989927 -0.88862,-4.523856 1.91344,-5.828563 4.08067,-1.900064 9.79522,-0.01952 11.5783,3.810185 1.49488,3.210695 0.82446,4.614377 -2.91982,6.113313 -2.19035,0.876858 -2.23728,0.883015 -3.98061,0.522228 z M 67.919178,45.679999 c -0.710098,-0.88988 -1.359177,-2.501381 -1.359177,-3.374497 0,-1.235057 2.115498,-4.459672 3.802118,-5.7955 0.738059,-0.584553 1.87581,-1.183235 2.528336,-1.330403 1.421609,-0.320625 3.401451,0.07098 4.252449,0.841127 1.451324,1.313429 0.206307,5.471483 -2.27397,7.594507 -2.241314,1.918482 -6.141779,3.077306 -6.949756,2.064766 z m 34.349172,-1.224663 c -1.07729,-1.280291 -1.27575,-2.162039 -1.04436,-4.639952 0.29405,-3.148956 1.0781,-4.295385 2.93763,-4.295385 1.70973,0 3.97607,3.061441 3.99135,5.391639 0.0237,3.608324 -3.86154,5.947984 -5.88462,3.543698 z M 166.56,43.093768 c -3.50579,-1.378732 -5.24232,-2.969868 -6.05503,-5.548075 -0.50621,-1.605892 -0.50951,-1.811102 -0.0406,-2.526768 1.08258,-1.652221 4.79532,-0.512935 7.61574,2.336953 2.71729,2.745682 3.11988,3.296285 3.11988,4.266912 0,1.662111 -0.25746,1.899147 -2.03423,1.872864 -0.90517,-0.01339 -2.07777,-0.194239 -2.60577,-0.401886 z m -55.92689,-8.958361 c -2.72129,-0.846466 -4.69186,-3.453335 -4.70608,-6.225686 -0.0157,-3.066779 1.64071,-4.869722 4.47401,-4.869722 1.95451,0 3.15188,0.526812 5.11896,2.252211 1.33998,1.175347 1.43609,1.364605 1.38369,2.724803 -0.0816,2.118192 -0.97808,3.973166 -2.58218,5.342986 -1.5072,1.287082 -1.82717,1.354349 -3.6884,0.775408 z m 17.68689,0.07312 c -3.17638,-0.620609 -5.42532,-3.243452 -5.43473,-6.338323 -0.007,-2.1891 0.9571,-3.573758 3.04152,-4.369806 3.43522,-1.311922 7.092,1.063106 8.46096,5.495275 0.99245,3.213182 0.47578,4.515202 -2.06775,5.210737 -1.45312,0.397361 -1.97566,0.397637 -4,0.0021 z M 87.422159,33.697862 c -1.200258,-0.160066 -2.298939,-1.599553 -2.300961,-3.014708 -0.0045,-3.12963 8.738626,-6.820207 11.645344,-4.915652 0.979955,0.642091 1.944778,3.026032 1.669149,4.124228 -0.561335,2.236537 -6.748871,4.374868 -11.013532,3.806132 z M 149.92,31.437566 c -2.01185,-0.223648 -6.13778,-1.436154 -7.60581,-2.235155 -1.75286,-0.95403 -2.88488,-2.540961 -2.7361,-3.835633 0.0938,-0.815832 0.22518,-0.89465 1.64266,-0.985159 3.36575,-0.214911 7.65546,1.398601 9.94093,3.739132 1.0039,1.028092 1.2011,1.42525 1.03542,2.085365 -0.24557,0.978423 -0.98006,1.375635 -2.2771,1.23145 z M 59.228489,183.24256 c 2.623191,-1.31892 5.060282,-2.28043 6.986277,-2.75633 1.626784,-0.40196 3.02349,-0.90206 3.103792,-1.11132 0.0803,-0.20927 -0.114989,-1.37823 -0.43398,-2.5977 l -0.579985,-2.21721 -2.811434,-0.0927 c -2.83228,-0.0934 -8.352889,0.70175 -12.053158,1.73612 -1.639148,0.4582 -7.079812,2.33874 -7.297141,2.52222 -0.124947,0.10549 8.606756,6.55636 8.863741,6.54842 0.10637,-0.003 2.00622,-0.91744 4.221888,-2.03146 z m 133.792931,-0.7362 c 4.62697,-3.12308 5.08426,-3.53478 4.39801,-3.95944 -1.11217,-0.68823 -8.41021,-2.85942 -11.17943,-3.32591 -4.60041,-0.77497 -10.32123,-1.02307 -10.74725,-0.46607 -0.42929,0.56126 -1.5672,4.39727 -1.36452,4.59995 0.0829,0.0829 1.43802,0.52272 3.01128,0.97731 2.80999,0.81191 7.22005,2.63069 10.06049,4.1491 0.792,0.42338 1.50124,0.77628 1.57609,0.78424 0.0748,0.008 1.98524,-1.23368 4.24533,-2.75918 z M 44.280606,174.43571 c 5.067445,-2.76623 10.64942,-4.56956 16.039395,-5.18173 6.272371,-0.7124 6.719055,-0.78074 6.64,-1.01596 -0.044,-0.13091 -0.08,-1.48317 -0.08,-3.00503 v -2.767 l -4.56,0.18922 c -2.508,0.10407 -7.08,0.48734 -10.16,0.85171 -8.937732,1.05737 -19.712729,2.54662 -20.48071,2.83071 -0.650572,0.24067 -0.495168,0.45123 1.967167,2.66543 2.808451,2.52544 7.898317,6.67694 8.186134,6.67694 0.09274,0 1.194347,-0.55993 2.448014,-1.24429 z M 205.8114,172.48904 c 1.87627,-1.57496 4.23883,-3.63375 5.25015,-4.57508 l 1.83876,-1.71151 -7.33015,-1.0229 c -9.67847,-1.3506 -18.05881,-2.21896 -24.05016,-2.49204 l -4.88,-0.22243 -0.0533,2.44746 c -0.0293,1.3461 -0.0653,2.69946 -0.08,3.00746 -0.023,0.48318 0.50006,0.61382 3.81333,0.9524 7.75203,0.79217 13.10565,2.26198 18.48286,5.07441 1.45043,0.75861 2.85314,1.38526 3.11714,1.39255 0.264,0.007 2.01513,-1.27536 3.8914,-2.85032 z M 120.32,167.93888 c 0,-0.71684 -0.27246,-1.75234 -0.60548,-2.30111 -1.61717,-2.66494 -0.93871,-4.35777 1.74652,-4.35777 2.62465,0 2.72239,0.15758 2.48672,4.00932 -0.14468,2.36463 -0.1005,3.35068 0.15012,3.35068 0.54061,0 1.86658,-2.48847 2.47241,-4.64 1.53518,-5.45196 3.87112,-7.89541 9.02971,-9.4453 1.276,-0.38337 2.32,-0.75132 2.32,-0.81765 0,-0.0663 -0.468,-0.36922 -1.04,-0.67307 -1.89092,-1.00446 -5.26449,-0.75013 -9.36,0.70564 -4.71562,1.6762 -6.36924,1.67183 -11.36,-0.03 -2.9218,-0.99633 -4.14151,-1.25351 -5.92,-1.24827 -2.24387,0.007 -4.64,0.58734 -4.64,1.12454 0,0.15744 0.828,0.51357 1.84,0.7914 5.84975,1.606 8.12265,4.08524 9.84744,10.74142 0.62548,2.41382 1.23499,3.66894 1.98572,4.08907 0.81042,0.45353 1.04684,0.16018 1.04684,-1.29888 z"
     id="path1" />
</svg>
